#!OML:ASF G:\JayActor3\Patient Classification 1\Patient 1\Session 5\male.ASF
:FULLY-SPECIFIED
:DEGREES
333
root -36.8541 16.2302 -5.91138 -38.5613 87.7705 -53.9141
lowerback 32.796 -2.02629 1.04694
upperback 10.2817 -1.31219 -1.67259
thorax -6.22523 -0.16778 -2.05583
lowerneck -0.107618 -0.0815991 1.97551
upperneck -22.2569 1.31994 3.14859
head -6.77275 0.558664 0.567659
rclavicle -8.74653e-015 5.56597e-015
rhumerus -31.3351 3.36242 -89.4233
rradius 44.4131
rwrist -4.91894
rhand -20.0635 -9.74849
rfingers 7.12502
rthumb 6.27855 -39.6354
lclavicle -8.74653e-015 5.56597e-015
lhumerus -26.2309 1.17043 80.6395
lradius 42.4765
lwrist 26.418
lhand -19.4676 14.2793
lfingers 7.12502
lthumb 6.85381 44.1483
rfemur -71.6157 -2.85754 21.7247
rtibia 53.6882
rfoot 29.7958 -14.1923
rtoes 3.30063
lfemur -48.1655 16.5652 -23.2558
ltibia 74.996
lfoot 8.37066 -3.6294
ltoes -35.3869
334
root -36.7583 16.2263 -5.87986 -42.5996 87.9325 -58.0871
lowerback 32.6415 -2.03537 1.06516
upperback 10.2604 -1.31974 -1.62622
thorax -6.18036 -0.173697 -2.01145
lowerneck -0.13906 -0.122869 2.00711
upperneck -22.2582 1.2654 3.15143
head -6.76736 0.530272 0.566407
rclavicle -4.37326e-015 -1.39149e-014
rhumerus -31.4241 3.25128 -89.4016
rradius 44.2618
rwrist -4.82251
rhand -20.0573 -9.76771
rfingers 7.12502
rthumb 6.28454 -39.6545
lclavicle -4.37326e-015 -1.39149e-014
lhumerus -26.289 1.14487 80.6702
lradius 42.4677
lwrist 26.4106
lhand -19.4697 14.2969
lfingers 7.12502
lthumb 6.85175 44.1661
rfemur -71.4393 -2.86136 21.8276
rtibia 53.5773
rfoot 29.6425 -14.3783
rtoes 3.67707
lfemur -47.8932 16.5518 -23.0625
ltibia 74.9251
lfoot 8.34922 -3.79189
ltoes -35.3585
335
root -36.6595 16.221 -5.84777 -47.6297 88.1094 -63.2496
lowerback 32.4942 -2.05631 1.0839
upperback 10.2361 -1.34197 -1.58141
thorax -6.14264 -0.186524 -1.96392
lowerneck -0.19242 -0.1627 2.03384
upperneck -22.2374 1.20955 3.14993
head -6.75092 0.502347 0.564695
rclavicle -3.57812e-015 3.57812e-015
rhumerus -31.5152 3.16025 -89.3807
rradius 44.1147
rwrist -4.71444
rhand -20.0658 -9.76854
rfingers 7.12502
rthumb 6.27628 -39.6556
lclavicle -3.57812e-015 3.57812e-015
lhumerus -26.3604 1.13548 80.6974
lradius 42.453
lwrist 26.3929
lhand -19.4845 14.3162
lfingers 7.12502
lthumb 6.83748 44.1858
rfemur -71.2759 -2.91206 21.9402
rtibia 53.6355
rfoot 29.3907 -14.5864
rtoes 4.19697
lfemur -47.6023 16.5175 -22.8817
ltibia 74.8638
lfoot 8.30734 -3.94098
ltoes -35.333
336
root -36.5579 16.2134 -5.81452 -53.8914 88.2777 -69.6519
lowerback 32.3411 -2.08055 1.10409
upperback 10.2042 -1.36907 -1.53599
thorax -6.11118 -0.202149 -1.91494
lowerneck -0.254786 -0.202894 2.06119
upperneck -22.2005 1.15019 3.14105
head -6.72765 0.473283 0.560694
rclavicle -9.14409e-015 -6.75868e-015
rhumerus -31.614 3.08112 -89.3617
rradius 43.9766
rwrist -4.58455
rhand -20.0642 -9.76527
rfingers 7.12502
rthumb 6.27783 -39.6522
lclavicle -9.14409e-015 -6.75868e-015
lhumerus -26.452 1.13471 80.719
lradius 42.4337
lwrist 26.3688
lhand -19.5126 14.3478
lfingers 7.12502
lthumb 6.81038 44.2183
rfemur -71.1415 -2.98326 22.0708
rtibia 53.868
rfoot 28.9512 -14.7351
rtoes 4.87059
lfemur -47.3199 16.4849 -22.7062
ltibia 74.8188
lfoot 8.24779 -4.07125
ltoes -35.2976
337
root -36.4538 16.2051 -5.78089 -62.2977 88.4565 -78.1915
lowerback 32.2089 -2.12102 1.12713
upperback 10.1655 -1.41573 -1.49594
thorax -6.09755 -0.226939 -1.86671
lowerneck -0.32132 -0.247015 2.09596
upperneck -22.1562 1.0831 3.12273
head -6.7012 0.440535 0.552811
rclavicle 2.26615e-014 1.55052e-014
rhumerus -31.7168 3.00842 -89.3441
rradius 43.8401
rwrist -4.43643
rhand -20.0526 -9.75828
rfingers 7.12502
rthumb 6.28905 -39.6449
lclavicle 2.26615e-014 1.55052e-014
lhumerus -26.5595 1.143 80.7363
lradius 42.4074
lwrist 26.3336
lhand -19.5484 14.3803
lfingers 7.12502
lthumb 6.77574 44.2519
rfemur -71.0346 -3.11872 22.201
rtibia 54.2698
rfoot 28.3317 -14.5752
rtoes 5.25727
lfemur -47.0179 16.4289 -22.5594
ltibia 74.7739
lfoot 8.17435 -4.16888
ltoes -35.2542
338
root -36.3471 16.1946 -5.74639 -73.3879 88.6044 -89.4184
lowerback 32.0841 -2.16932 1.15541
upperback 10.1177 -1.47128 -1.45449
thorax -6.09795 -0.25634 -1.81688
lowerneck -0.395801 -0.291726 2.1266
upperneck -22.1003 1.01333 3.10209
head -6.66959 0.407065 0.545002
rclavicle -6.75868e-015 -2.14687e-014
rhumerus -31.8278 2.94301 -89.3253
rradius 43.7124
rwrist -4.27541
rhand -20.0392 -9.7516
rfingers 7.12502
rthumb 6.302 -39.6379
lclavicle -6.75868e-015 -2.14687e-014
lhumerus -26.6842 1.16264 80.751
lradius 42.3729
lwrist 26.2929
lhand -19.5818 14.41
lfingers 7.12502
lthumb 6.7435 44.2826
rfemur -70.9586 -3.29882 22.3582
rtibia 54.8365
rfoot 27.414 -14.206
rtoes 5.64495
lfemur -46.7214 16.3719 -22.4229
ltibia 74.7408
lfoot 8.08455 -4.23843
ltoes -35.2269
339
root -36.238 16.1819 -5.71095 -86.4488 88.6739 -102.625
lowerback 31.9512 -2.21923 1.19857
upperback 10.0666 -1.5248 -1.40642
thorax -6.0984 -0.285103 -1.76915
lowerneck -0.483307 -0.336406 2.15514
upperneck -22.0424 0.941964 3.07492
head -6.63513 0.373751 0.535487
rclavicle -4.37326e-015 4.77083e-015
rhumerus -31.9375 2.88711 -89.3037
rradius 43.5959
rwrist -4.11378
rhand -20.0243 -9.73496
rfingers 7.12502
rthumb 6.31632 -39.6208
lclavicle -4.37326e-015 4.77083e-015
lhumerus -26.8185 1.19609 80.7645
lradius 42.3352
lwrist 26.2519
lhand -19.6139 14.4242
lfingers 7.12502
lthumb 6.71259 44.2978
rfemur -70.9269 -3.49321 22.5665
rtibia 55.5428
rfoot 26.1457 -13.6196
rtoes 5.74821
lfemur -46.4427 16.3499 -22.273
ltibia 74.7172
lfoot 7.97354 -4.29624
ltoes -35.2188
340
root -36.1271 16.1676 -5.67519 -100.403 88.663 -116.729
lowerback 31.8259 -2.2759 1.25831
upperback 10.0109 -1.58205 -1.3562
thorax -6.10772 -0.315749 -1.72739
lowerneck -0.57626 -0.382254 2.17552
upperneck -21.9857 0.868702 3.04863
head -6.60015 0.340202 0.527681
rclavicle -1.55052e-014 -1.86858e-014
rhumerus -32.0487 2.83164 -89.2788
rradius 43.4945
rwrist -3.95715
rhand -19.9992 -9.7169
rfingers 7.12502
rthumb 6.34055 -39.602
lclavicle -1.55052e-014 -1.86858e-014
lhumerus -26.9543 1.24576 80.7773
lradius 42.2853
lwrist 26.2099
lhand -19.6318 14.4285
lfingers 7.12502
lthumb 6.69528 44.3027
rfemur -70.9411 -3.72032 22.8185
rtibia 56.3606
rfoot 24.6297 -12.8937
rtoes 5.54259
lfemur -46.1586 16.3387 -22.1158
ltibia 74.6973
lfoot 7.80168 -4.33326
ltoes -35.2239
341
root -36.0146 16.1521 -5.63911 -112.754 88.5711 -129.232
lowerback 31.7024 -2.32971 1.33591
upperback 9.9527 -1.63079 -1.30308
thorax -6.12079 -0.342508 -1.69587
lowerneck -0.669137 -0.428539 2.18717
upperneck -21.9372 0.795603 3.02469
head -6.56787 0.307319 0.522022
rclavicle 9.14409e-015 -3.97569e-015
rhumerus -32.1599 2.76512 -89.2487
rradius 43.4055
rwrist -3.81577
rhand -19.9697 -9.69045
rfingers 7.12502
rthumb 6.36904 -39.5747
lclavicle 9.14409e-015 -3.97569e-015
lhumerus -27.0925 1.29614 80.7903
lradius 42.2342
lwrist 26.172
lhand -19.6385 14.4365
lfingers 7.12502
lthumb 6.68881 44.3108
rfemur -71.0034 -3.94608 23.1085
rtibia 57.2497
rfoot 22.9634 -12.2009
rtoes 5.16549
lfemur -45.8636 16.3466 -21.9373
ltibia 74.6703
lfoot 7.60782 -4.35834
ltoes -35.1158
342
root -35.9006 16.1358 -5.60311 -122.232 88.4302 -138.866
lowerback 31.5796 -2.37574 1.4305
upperback 9.89311 -1.66554 -1.25087
thorax -6.13541 -0.362717 -1.68029
lowerneck -0.75017 -0.478018 2.19673
upperneck -21.9046 0.718399 2.99582
head -6.54283 0.27275 0.515289
rclavicle 3.18055e-015 2.14687e-014
rhumerus -32.2788 2.68856 -89.2156
rradius 43.3461
rwrist -3.70911
rhand -19.953 -9.63588
rfingers 7.12502
rthumb 6.38522 -39.5196
lclavicle 3.18055e-015 2.14687e-014
lhumerus -27.2239 1.34767 80.8047
lradius 42.1759
lwrist 26.1295
lhand -19.6401 14.4452
lfingers 7.12502
lthumb 6.68723 44.3196
rfemur -71.1156 -4.14728 23.4169
rtibia 58.1708
rfoot 21.3138 -11.6352
rtoes 4.6825
lfemur -45.534 16.3681 -21.7361
ltibia 74.6184
lfoot 7.33901 -4.36515
ltoes -34.8871
